<svg id="Camada_4" data-name="Camada 4" xmlns="http://www.w3.org/2000/svg" viewBox="0 0 584.77 68.06"><defs><style>.cls-1{fill:#259456;}.cls-2{fill:#4c73b2;}.cls-3{fill:#c64a40;}.cls-4{fill:#e5b22f;}.cls-5{fill:#040006;opacity:0.6;}</style></defs><title>gdg_petropolis_logo</title><path class="cls-1" d="M198.21,493.58q-10-5.82-20-11.63c-4.88-2.84-6.78-8.24-4.66-13.16a10.19,10.19,0,0,1,14.34-5q18.27,10.41,36.4,21a9.59,9.59,0,0,1,4.86,9.74c-.4,4.28-2.86,7.09-6.72,8.77a3.4,3.4,0,0,0-.48.29c-4.11.95-7.56-.6-11-2.69C206.79,498.37,202.47,496,198.21,493.58Z" transform="translate(-101.05 -462.49)"/><path class="cls-2" d="M132,493.54l16.3,9.52c1.4.81,2.83,1.59,4.21,2.44a10.26,10.26,0,0,1-10.29,17.76q-18.21-10.38-36.3-21a9.57,9.57,0,0,1-4.89-8.89,10,10,0,0,1,5.56-9c.43-.23.88-.44,1.31-.67a12.05,12.05,0,0,1,10,1.67C122.51,488.27,127.3,490.85,132,493.54Z" transform="translate(-101.05 -462.49)"/><path class="cls-3" d="M132,493.54c-4.72-2.69-9.51-5.27-14.15-8.1a12.05,12.05,0,0,0-10-1.67c4.38-2.55,8.74-5.12,13.12-7.66q10.36-6,20.73-12c5.29-3,11.45-1.52,14.38,3.53s1.19,11.16-4.08,14.24Q142.07,487.76,132,493.54Z" transform="translate(-101.05 -462.49)"/><path class="cls-4" d="M198.21,493.58c4.26,2.44,8.58,4.79,12.76,7.35,3.41,2.09,6.86,3.64,11,2.69-5,2.92-10,5.86-15,8.77-6.25,3.63-12.51,7.26-18.79,10.83a10.29,10.29,0,0,1-15.42-9.3,10,10,0,0,1,5.34-8.64q9.72-5.59,19.42-11.21C197.73,493.92,198,493.74,198.21,493.58Z" transform="translate(-101.05 -462.49)"/><path class="cls-5" d="M303.39,495.51q0,9.64-5.72,15.37-6.42,6.81-16.91,6.82a24,24,0,1,1,0-48.09,25.54,25.54,0,0,1,9.58,1.8,19.23,19.23,0,0,1,7.4,5.07l-4.25,4.25a14.11,14.11,0,0,0-5.49-4,18.25,18.25,0,0,0-7.24-1.45A17.35,17.35,0,0,0,268,480.47a19.47,19.47,0,0,0,0,26.36A17.35,17.35,0,0,0,280.76,512a17.15,17.15,0,0,0,11.45-3.86,15.38,15.38,0,0,0,5.27-10.61H280.76V492h22.31A19.23,19.23,0,0,1,303.39,495.51Z" transform="translate(-101.05 -462.49)"/><path class="cls-5" d="M310.59,516.67v-46h14.08q10.54,0,16.95,6.37T348,493.65q0,10.35-6.39,16.68t-16.95,6.34Zm5.92-40.38V511h8.16q8,0,12.67-4.6T342,493.65q0-8.1-4.63-12.73t-12.67-4.63Z" transform="translate(-101.05 -462.49)"/><path class="cls-5" d="M398.32,495.51q0,9.64-5.73,15.37-6.42,6.81-16.9,6.82a24,24,0,1,1,0-48.09,25.62,25.62,0,0,1,9.58,1.8,19.27,19.27,0,0,1,7.39,5.07l-4.24,4.25a14.22,14.22,0,0,0-5.5-4,18.24,18.24,0,0,0-7.23-1.45A17.31,17.31,0,0,0,363,480.47a19.44,19.44,0,0,0,0,26.36A17.31,17.31,0,0,0,375.69,512a17.12,17.12,0,0,0,11.44-3.86,15.38,15.38,0,0,0,5.27-10.61H375.69V492H398A19.27,19.27,0,0,1,398.32,495.51Z" transform="translate(-101.05 -462.49)"/><path class="cls-5" d="M425.39,498v18.65h-5.91v-46h15.69a14.15,14.15,0,0,1,10.15,4,13.29,13.29,0,0,1,0,19.48A14.12,14.12,0,0,1,435.17,498Zm0-21.73v16.07h9.9a7.86,7.86,0,0,0,5.86-2.37,7.76,7.76,0,0,0,2.37-5.66,7.66,7.66,0,0,0-2.37-5.59,7.74,7.74,0,0,0-5.86-2.45Z" transform="translate(-101.05 -462.49)"/><path class="cls-5" d="M465.46,517.7A15.08,15.08,0,0,1,454,512.94a16.8,16.8,0,0,1-4.5-12,17.17,17.17,0,0,1,4.37-12,14.49,14.49,0,0,1,11.19-4.78q7,0,11.15,4.53t4.15,12.7l-.06.64H455.56a10.31,10.31,0,0,0,3.09,7.46,9.89,9.89,0,0,0,7.07,2.82q5.65,0,8.87-5.65l5.28,2.57a15.74,15.74,0,0,1-5.89,6.24A16.24,16.24,0,0,1,465.46,517.7ZM456,497.12h18.07a7.84,7.84,0,0,0-2.67-5.43,9.32,9.32,0,0,0-6.46-2.15,8.55,8.55,0,0,0-5.75,2A9.9,9.9,0,0,0,456,497.12Z" transform="translate(-101.05 -462.49)"/><path class="cls-5" d="M497.29,517.18a9,9,0,0,1-6.4-2.38,8.81,8.81,0,0,1-2.6-6.62V490.56h-5.53v-5.4h5.53v-9.64h5.91v9.64h7.72v5.4H494.2v15.69c0,2.1.41,3.53,1.22,4.28a4,4,0,0,0,2.77,1.12,5.79,5.79,0,0,0,1.38-.16,6.9,6.9,0,0,0,1.26-.42l1.86,5.28A16,16,0,0,1,497.29,517.18Z" transform="translate(-101.05 -462.49)"/><path class="cls-5" d="M513.43,516.67h-5.91V485.16h5.65v5.15h.26a8.54,8.54,0,0,1,3.7-4.28,10.22,10.22,0,0,1,5.49-1.77A11,11,0,0,1,527,485l-1.81,5.72a9.74,9.74,0,0,0-3.47-.45,7.66,7.66,0,0,0-5.82,2.7,9,9,0,0,0-2.47,6.3Z" transform="translate(-101.05 -462.49)"/><path class="cls-5" d="M527,500.89a16.67,16.67,0,0,1,4.56-12,15.55,15.55,0,0,1,11.64-4.76,15.31,15.31,0,0,1,11.57,4.76,17.92,17.92,0,0,1,0,24,15.35,15.35,0,0,1-11.57,4.76,15.58,15.58,0,0,1-11.64-4.76A16.67,16.67,0,0,1,527,500.89Zm5.91,0a11.54,11.54,0,0,0,3,8.23,10.1,10.1,0,0,0,14.66,0,12.87,12.87,0,0,0,0-16.4,10,10,0,0,0-14.66,0A11.47,11.47,0,0,0,532.91,500.89Zm17.23-30.28-4.63,8.23h-5.14l3.34-8.23Z" transform="translate(-101.05 -462.49)"/><path class="cls-5" d="M579.94,517.7a13.64,13.64,0,0,1-6.33-1.48,11.13,11.13,0,0,1-4.41-3.93H569l.25,4.38v13.88h-5.91V485.16H569v4.38h.25a11.13,11.13,0,0,1,4.41-3.93A14,14,0,0,1,590.48,489a18.15,18.15,0,0,1,0,23.79A13.51,13.51,0,0,1,579.94,517.7Zm-1-5.41a9.23,9.23,0,0,0,7.13-3.21,11.59,11.59,0,0,0,2.9-8.16,11.75,11.75,0,0,0-2.9-8.17,9.6,9.6,0,0,0-14.33,0,13.28,13.28,0,0,0,0,16.39A9.32,9.32,0,0,0,579,512.29Z" transform="translate(-101.05 -462.49)"/><path class="cls-5" d="M598.32,500.92a16.66,16.66,0,0,1,4.57-12,15.54,15.54,0,0,1,11.64-4.75,15.36,15.36,0,0,1,11.57,4.75,17.93,17.93,0,0,1,0,24.05,15.37,15.37,0,0,1-11.57,4.76,15.55,15.55,0,0,1-11.64-4.76A16.64,16.64,0,0,1,598.32,500.92Zm5.92,0a11.49,11.49,0,0,0,3,8.22,10.09,10.09,0,0,0,14.65,0,12.82,12.82,0,0,0,0-16.39,10,10,0,0,0-14.65,0A11.41,11.41,0,0,0,604.24,500.92Z" transform="translate(-101.05 -462.49)"/><path class="cls-5" d="M641,470.65v45.42h-5.92V470.65Z" transform="translate(-101.05 -462.49)"/><path class="cls-5" d="M655.85,474.7a4.17,4.17,0,1,1-1.22-3A4.05,4.05,0,0,1,655.85,474.7Zm-1.22,10.41v31h-5.92v-31Z" transform="translate(-101.05 -462.49)"/><path class="cls-5" d="M685.81,507.92a8.55,8.55,0,0,1-3.6,6.95,15.63,15.63,0,0,1-17.42.35,13.56,13.56,0,0,1-5.14-6.53l5.27-2.25a9.75,9.75,0,0,0,3.37,4.41,8.21,8.21,0,0,0,4.86,1.57,8.5,8.5,0,0,0,4.72-1.22,3.46,3.46,0,0,0,1.9-2.89c0-2-1.54-3.49-4.63-4.44l-5.4-1.35q-9.19-2.31-9.19-8.87a8.17,8.17,0,0,1,3.5-6.91,16.08,16.08,0,0,1,16.52-.61,10.87,10.87,0,0,1,4.73,5.33L680,493.65a6.69,6.69,0,0,0-2.93-3.12,9.17,9.17,0,0,0-4.53-1.12,7.62,7.62,0,0,0-4.15,1.15,3.35,3.35,0,0,0-1.83,2.83q0,2.7,5.08,3.86l4.76,1.22Q685.81,500.79,685.81,507.92Z" transform="translate(-101.05 -462.49)"/></svg>