<svg id="Camada_4" data-name="Camada 4" xmlns="http://www.w3.org/2000/svg" viewBox="0 0 584.77 342.45"><defs><style>.cls-1{fill:#929293;}.cls-2{fill:#686d73;}.cls-3{fill:#e5b22f;}.cls-4{fill:#259456;}.cls-5{fill:#c64a40;}.cls-6{fill:#4c73b2;}.cls-7{fill:#040006;opacity:0.6;}</style></defs><title>gdg_petropolis_logocomimagem</title><rect class="cls-1" x="84.7" y="123.06" width="7.63" height="21.47"/><rect class="cls-1" x="84.7" y="146.48" width="7.63" height="27.72"/><rect class="cls-1" x="94.17" y="123.06" width="7.63" height="21.47"/><rect class="cls-1" x="94.17" y="146.48" width="7.63" height="27.72"/><rect class="cls-1" x="103.64" y="123.06" width="7.63" height="21.47"/><rect class="cls-1" x="103.64" y="146.48" width="7.63" height="27.72"/><rect class="cls-1" x="113.11" y="123.06" width="7.63" height="21.47"/><rect class="cls-1" x="113.11" y="146.48" width="7.63" height="27.72"/><rect class="cls-1" x="122.58" y="123.06" width="7.63" height="21.47"/><rect class="cls-1" x="122.58" y="146.48" width="7.63" height="27.72"/><rect class="cls-1" x="132.05" y="123.06" width="7.63" height="21.47"/><rect class="cls-1" x="132.05" y="146.48" width="7.63" height="27.72"/><rect class="cls-1" x="141.52" y="123.06" width="7.63" height="21.47"/><rect class="cls-1" x="141.52" y="146.48" width="7.63" height="27.72"/><rect class="cls-1" x="150.99" y="123.06" width="7.63" height="21.47"/><rect class="cls-1" x="150.99" y="146.48" width="7.63" height="27.72"/><rect class="cls-1" x="160.46" y="123.06" width="7.63" height="21.47"/><rect class="cls-1" x="160.46" y="146.48" width="7.63" height="27.72"/><rect class="cls-1" x="169.93" y="123.06" width="7.63" height="21.47"/><rect class="cls-1" x="169.93" y="146.48" width="7.63" height="27.72"/><rect class="cls-1" x="179.4" y="123.06" width="7.63" height="21.47"/><rect class="cls-1" x="179.4" y="146.48" width="7.63" height="27.72"/><rect class="cls-1" x="188.87" y="123.06" width="7.63" height="21.47"/><rect class="cls-1" x="188.87" y="146.48" width="7.63" height="27.72"/><polygon class="cls-1" points="188.87 199.98 196.5 199.98 196.5 176.52 188.87 176.52 188.87 198.11 187.03 198.11 187.03 176.52 179.4 176.52 179.4 198.11 177.56 198.11 177.56 176.52 169.93 176.52 169.93 198.11 168.09 198.11 168.09 176.52 160.46 176.52 160.46 198.11 158.62 198.11 158.62 176.52 150.99 176.52 150.99 198.11 149.15 198.11 149.15 176.52 141.52 176.52 141.52 198.11 139.68 198.11 139.68 176.52 132.05 176.52 132.05 198.11 130.21 198.11 130.21 176.52 122.58 176.52 122.58 198.11 120.74 198.11 120.74 176.52 113.11 176.52 113.11 198.11 111.27 198.11 111.27 176.52 103.64 176.52 103.64 198.11 101.8 198.11 101.8 176.52 94.17 176.52 94.17 198.11 92.33 198.11 92.33 176.52 84.7 176.52 84.7 199.98 92.33 199.98 94.17 199.98 101.8 199.98 103.64 199.98 111.27 199.98 113.11 199.98 120.74 199.98 122.58 199.98 130.21 199.98 132.05 199.98 139.68 199.98 141.52 199.98 149.15 199.98 150.99 199.98 158.62 199.98 160.46 199.98 168.09 199.98 169.93 199.98 177.56 199.98 179.4 199.98 187.03 199.98 188.87 199.98"/><path class="cls-1" d="M392.61,269.55v-.49h-7.77v.76C389.73,269.49,392.61,269.55,392.61,269.55Z" transform="translate(-101.05 -188.1)"/><path class="cls-1" d="M383.69,269.92v-.86h-7.77v1C379,270,381.45,270.09,383.69,269.92Z" transform="translate(-101.05 -188.1)"/><path class="cls-1" d="M374.78,270v-1H367v1.73A73,73,0,0,1,374.78,270Z" transform="translate(-101.05 -188.1)"/><path class="cls-1" d="M365.86,271v-1.89h-7.77v3.16C360.78,271.74,363.38,271.32,365.86,271Z" transform="translate(-101.05 -188.1)"/><path class="cls-1" d="M357,272.43v-3.37h-7.77V274C351.82,273.41,354.42,272.89,357,272.43Z" transform="translate(-101.05 -188.1)"/><path class="cls-1" d="M348,274.25v-5.19h-7.77v7.1C342.88,275.46,345.48,274.83,348,274.25Z" transform="translate(-101.05 -188.1)"/><path class="cls-1" d="M339.11,276.47v-7.41h-7.77v9.72C333.94,277.94,336.54,277.18,339.11,276.47Z" transform="translate(-101.05 -188.1)"/><path class="cls-1" d="M330.2,279.15V269.06h-7.77v12.86C325,280.93,327.6,280,330.2,279.15Z" transform="translate(-101.05 -188.1)"/><path class="cls-1" d="M314.42,285.29c2.26-1,4.55-2,6.86-2.92V269.06h-7.77v16.47Z" transform="translate(-101.05 -188.1)"/><path class="cls-1" d="M312.37,285.84V269.06H304.6V289A37.09,37.09,0,0,1,312.37,285.84Z" transform="translate(-101.05 -188.1)"/><rect class="cls-1" x="85.18" y="202.37" width="16.62" height="6.45"/><rect class="cls-1" x="104.12" y="202.37" width="16.62" height="6.45"/><rect class="cls-1" x="123.06" y="202.37" width="16.62" height="6.45"/><rect class="cls-1" x="142" y="202.37" width="16.62" height="6.45"/><rect class="cls-1" x="161.62" y="202.37" width="16.62" height="6.45"/><rect class="cls-1" x="180.56" y="202.37" width="16.62" height="6.45"/><rect class="cls-1" x="199.68" y="202.37" width="6.43" height="6.45"/><rect class="cls-1" x="208.85" y="202.37" width="13.19" height="6.45"/><rect class="cls-1" x="225.08" y="202.37" width="18.04" height="6.45"/><rect class="cls-1" x="246.39" y="202.37" width="20.63" height="6.45"/><path class="cls-1" d="M382.22,292.31v25.91c3.29-.07,6.7-.12,10.25-.15,0-12.9.14-25.66.14-25.66S388.57,292.31,382.22,292.31Z" transform="translate(-101.05 -188.1)"/><path class="cls-1" d="M370.61,292.42v26.15c3.31-.13,6.77-.23,10.39-.32V292.31C378,292.32,374.43,292.35,370.61,292.42Z" transform="translate(-101.05 -188.1)"/><path class="cls-1" d="M358.41,319.17q4.92-.3,10.39-.53V292.46c-3.3.07-6.8.18-10.39.32Z" transform="translate(-101.05 -188.1)"/><path class="cls-1" d="M357,292.84c-3.51.16-7.1.36-10.67.61v26.6c3.32-.29,6.87-.56,10.67-.8Z" transform="translate(-101.05 -188.1)"/><path class="cls-1" d="M335.25,321.2q4.44-.54,9.65-1V293.55c-3.26.24-6.5.53-9.65.87Z" transform="translate(-101.05 -188.1)"/><path class="cls-1" d="M333.78,294.58c-2.92.34-5.74.72-8.41,1.16V322.6c2.55-.42,5.34-.82,8.41-1.21Z" transform="translate(-101.05 -188.1)"/><path class="cls-1" d="M316.36,324.33c2.24-.5,4.77-1,7.63-1.5V296c-2.74.47-5.3,1-7.63,1.61Z" transform="translate(-101.05 -188.1)"/><path class="cls-1" d="M315.28,297.87a39.49,39.49,0,0,0-6.24,2.24v26.13c1.74-.53,3.8-1.1,6.24-1.67Z" transform="translate(-101.05 -188.1)"/><path class="cls-1" d="M307.59,300.87a26.61,26.61,0,0,0-3.67,2.51v24.71c1-.44,2.31-.93,3.89-1.46V300.81h-.13Z" transform="translate(-101.05 -188.1)"/><path class="cls-1" d="M302.57,304.6a11.36,11.36,0,0,0-2.48,3.25v22.4a10.06,10.06,0,0,1,2.48-1.53Z" transform="translate(-101.05 -188.1)"/><path class="cls-1" d="M358.41,353.7q5,0,10.39.06V320.67s-4.12,0-10.39.27Z" transform="translate(-101.05 -188.1)"/><path class="cls-1" d="M346.35,354.18c3.38-.14,6.93-.24,10.67-.29V321.18c-3.17.14-6.8.35-10.67.65Z" transform="translate(-101.05 -188.1)"/><path class="cls-1" d="M335.25,354.85q4.53-.36,9.65-.6V321.94c-3.12.25-6.37.56-9.65.94Z" transform="translate(-101.05 -188.1)"/><path class="cls-1" d="M325.37,355.8c2.6-.3,5.41-.58,8.41-.83V323.06c-2.82.34-5.65.74-8.41,1.2Z" transform="translate(-101.05 -188.1)"/><path class="cls-1" d="M316.36,357c2.3-.35,4.85-.71,7.63-1V324.5c-2.63.46-5.19,1-7.63,1.57Z" transform="translate(-101.05 -188.1)"/><path class="cls-1" d="M309,358.29q2.71-.54,6.24-1.11V326.33c-2.22.56-4.31,1.18-6.24,1.86Z" transform="translate(-101.05 -188.1)"/><path class="cls-1" d="M303.92,359.38c1.07-.25,2.37-.54,3.89-.85V328.64a37.2,37.2,0,0,0-3.89,1.71Z" transform="translate(-101.05 -188.1)"/><path class="cls-1" d="M300.09,360.2h.59l1.89-.49V331.09a18.58,18.58,0,0,0-2.48,1.71Z" transform="translate(-101.05 -188.1)"/><path class="cls-1" d="M358.41,388.05a0,0,0,0,0,0,0h10.33a0,0,0,0,0,0,0V355.74s-4.13,0-10.39.16Z" transform="translate(-101.05 -188.1)"/><path class="cls-1" d="M346.35,388.08H357V355.94c-3.17.08-6.8.19-10.67.35Z" transform="translate(-101.05 -188.1)"/><path class="cls-1" d="M335.25,388.08h9.65V356.35c-3.12.14-6.38.3-9.65.51Z" transform="translate(-101.05 -188.1)"/><path class="cls-1" d="M325.37,388.08h8.41V357c-2.82.18-5.65.39-8.41.64Z" transform="translate(-101.05 -188.1)"/><path class="cls-1" d="M316.36,388.08H324V357.71c-2.64.25-5.2.52-7.63.83Z" transform="translate(-101.05 -188.1)"/><path class="cls-1" d="M309,388.08h6.24v-29.4c-2.23.3-4.33.63-6.24,1Z" transform="translate(-101.05 -188.1)"/><path class="cls-1" d="M303.86,388.08h3.89V359.93c-1.43.29-2.73.6-3.89.94Z" transform="translate(-101.05 -188.1)"/><path class="cls-1" d="M300.09,388.08h2.48V361.27a17.73,17.73,0,0,0-2.48,1Z" transform="translate(-101.05 -188.1)"/><rect class="cls-1" x="492.43" y="123.06" width="7.63" height="21.47"/><rect class="cls-1" x="492.43" y="146.48" width="7.63" height="27.72"/><polygon class="cls-1" points="492.44 198.11 490.6 198.11 490.6 176.52 482.96 176.52 482.96 198.11 481.13 198.11 481.13 176.52 473.5 176.52 473.5 198.11 471.66 198.11 471.66 176.52 464.03 176.52 464.03 198.11 462.19 198.11 462.19 176.52 454.56 176.52 454.56 198.11 452.72 198.11 452.72 176.52 445.09 176.52 445.09 198.11 443.25 198.11 443.25 176.52 435.62 176.52 435.62 198.11 433.78 198.11 433.78 176.52 426.15 176.52 426.15 198.11 424.31 198.11 424.31 176.52 416.68 176.52 416.68 198.11 414.84 198.11 414.84 176.52 407.21 176.52 407.21 198.11 405.37 198.11 405.37 176.52 397.74 176.52 397.74 198.11 395.9 198.11 395.9 176.52 388.27 176.52 388.27 199.98 395.9 199.98 397.74 199.98 405.37 199.98 407.21 199.98 414.84 199.98 416.68 199.98 424.31 199.98 426.15 199.98 433.78 199.98 435.62 199.98 443.25 199.98 445.09 199.98 452.72 199.98 454.56 199.98 462.19 199.98 464.03 199.98 471.66 199.98 473.5 199.98 481.13 199.98 482.96 199.98 490.6 199.98 492.44 199.98 500.07 199.98 500.07 176.52 492.44 176.52 492.44 198.11"/><rect class="cls-1" x="482.97" y="123.06" width="7.63" height="21.47"/><rect class="cls-1" x="482.97" y="146.48" width="7.63" height="27.72"/><rect class="cls-1" x="473.5" y="123.06" width="7.63" height="21.47"/><rect class="cls-1" x="473.5" y="146.48" width="7.63" height="27.72"/><rect class="cls-1" x="464.03" y="123.06" width="7.63" height="21.47"/><rect class="cls-1" x="464.03" y="146.48" width="7.63" height="27.72"/><rect class="cls-1" x="454.56" y="123.06" width="7.63" height="21.47"/><rect class="cls-1" x="454.56" y="146.48" width="7.63" height="27.72"/><rect class="cls-1" x="445.09" y="123.06" width="7.63" height="21.47"/><rect class="cls-1" x="445.09" y="146.48" width="7.63" height="27.72"/><rect class="cls-1" x="435.62" y="123.06" width="7.63" height="21.47"/><rect class="cls-1" x="435.62" y="146.48" width="7.63" height="27.72"/><rect class="cls-1" x="426.15" y="123.06" width="7.63" height="21.47"/><rect class="cls-1" x="426.15" y="146.48" width="7.63" height="27.72"/><rect class="cls-1" x="416.68" y="123.06" width="7.63" height="21.47"/><rect class="cls-1" x="416.68" y="146.48" width="7.63" height="27.72"/><rect class="cls-1" x="407.21" y="123.06" width="7.63" height="21.47"/><rect class="cls-1" x="407.21" y="146.48" width="7.63" height="27.72"/><rect class="cls-1" x="397.74" y="123.06" width="7.63" height="21.47"/><rect class="cls-1" x="397.74" y="146.48" width="7.63" height="27.72"/><rect class="cls-1" x="388.27" y="123.06" width="7.63" height="21.47"/><rect class="cls-1" x="388.27" y="146.48" width="7.63" height="27.72"/><path class="cls-1" d="M402,269.82v-.76h-7.77v.49S397.13,269.49,402,269.82Z" transform="translate(-101.05 -188.1)"/><path class="cls-1" d="M410.93,270v-1h-7.77v.86C405.41,270.09,407.86,270,410.93,270Z" transform="translate(-101.05 -188.1)"/><path class="cls-1" d="M419.85,270.79v-1.73h-7.77v1A73,73,0,0,1,419.85,270.79Z" transform="translate(-101.05 -188.1)"/><path class="cls-1" d="M428.77,272.22v-3.16H421V271C423.48,271.32,426.08,271.74,428.77,272.22Z" transform="translate(-101.05 -188.1)"/><path class="cls-1" d="M437.68,274v-4.94h-7.77v3.37Q433.71,273.12,437.68,274Z" transform="translate(-101.05 -188.1)"/><path class="cls-1" d="M446.6,276.16v-7.1h-7.77v5.19C441.38,274.83,444,275.46,446.6,276.16Z" transform="translate(-101.05 -188.1)"/><path class="cls-1" d="M455.51,278.78v-9.72h-7.77v7.41C450.32,277.18,452.91,277.94,455.51,278.78Z" transform="translate(-101.05 -188.1)"/><path class="cls-1" d="M464.43,281.92V269.06h-7.77v10.09C459.25,280,461.85,280.93,464.43,281.92Z" transform="translate(-101.05 -188.1)"/><path class="cls-1" d="M472.44,285.29l.9.24V269.06h-7.77v13.31C467.88,283.28,470.17,284.26,472.44,285.29Z" transform="translate(-101.05 -188.1)"/><path class="cls-1" d="M482.26,289V269.06h-7.77v16.78A37.31,37.31,0,0,1,482.26,289Z" transform="translate(-101.05 -188.1)"/><rect class="cls-1" x="482.97" y="202.37" width="16.62" height="6.45"/><rect class="cls-1" x="464.03" y="202.37" width="16.62" height="6.45"/><rect class="cls-1" x="445.09" y="202.37" width="16.62" height="6.45"/><rect class="cls-1" x="426.15" y="202.37" width="16.62" height="6.45"/><rect class="cls-1" x="406.53" y="202.37" width="16.62" height="6.45"/><rect class="cls-1" x="387.59" y="202.37" width="16.62" height="6.45"/><rect class="cls-1" x="378.66" y="202.37" width="6.43" height="6.45"/><rect class="cls-1" x="362.73" y="202.37" width="13.19" height="6.45"/><rect class="cls-1" x="341.65" y="202.37" width="18.04" height="6.45"/><rect class="cls-1" x="317.75" y="202.37" width="20.63" height="6.45"/><path class="cls-1" d="M404.63,292.31c-6.34,0-10.38.1-10.38.1s.13,12.76.13,25.66c3.56,0,7,.08,10.25.15Z" transform="translate(-101.05 -188.1)"/><path class="cls-1" d="M405.86,292.31v25.94c3.62.09,7.07.19,10.38.32V292.42C412.42,292.35,408.91,292.32,405.86,292.31Z" transform="translate(-101.05 -188.1)"/><path class="cls-1" d="M428.45,292.78c-3.6-.14-7.09-.25-10.39-.32v26.18q5.47.23,10.39.53Z" transform="translate(-101.05 -188.1)"/><path class="cls-1" d="M429.84,319.25c3.8.24,7.35.51,10.67.8v-26.6c-3.57-.25-7.16-.45-10.67-.61Z" transform="translate(-101.05 -188.1)"/><path class="cls-1" d="M451.61,294.42c-3.15-.34-6.39-.63-9.65-.87v26.63c3.47.32,6.68.66,9.65,1Z" transform="translate(-101.05 -188.1)"/><path class="cls-1" d="M453.08,321.39q4.59.58,8.41,1.21V295.74c-2.67-.44-5.5-.82-8.41-1.16Z" transform="translate(-101.05 -188.1)"/><path class="cls-1" d="M470.5,297.58c-2.33-.6-4.89-1.14-7.63-1.61v26.86c2.86.49,5.39,1,7.63,1.5Z" transform="translate(-101.05 -188.1)"/><path class="cls-1" d="M471.58,324.57c2.43.57,4.5,1.14,6.24,1.67V300.11a39.49,39.49,0,0,0-6.24-2.24Z" transform="translate(-101.05 -188.1)"/><path class="cls-1" d="M482.94,303.38a26.61,26.61,0,0,0-3.67-2.51l-.1-.06h-.12v25.82c1.58.53,2.86,1,3.89,1.46Z" transform="translate(-101.05 -188.1)"/><path class="cls-1" d="M484.29,328.72a10.36,10.36,0,0,1,2.48,1.53v-22.4a11.36,11.36,0,0,0-2.48-3.25Z" transform="translate(-101.05 -188.1)"/><path class="cls-1" d="M418.06,353.76q5.4-.11,10.39-.06V320.94c-6.27-.26-10.39-.27-10.39-.27Z" transform="translate(-101.05 -188.1)"/><path class="cls-1" d="M429.84,353.89c3.74.05,7.29.15,10.67.29V321.83c-3.88-.3-7.51-.51-10.67-.65Z" transform="translate(-101.05 -188.1)"/><path class="cls-1" d="M442,354.25c3.41.16,6.62.36,9.65.6v-32c-3.28-.38-6.53-.69-9.65-.94Z" transform="translate(-101.05 -188.1)"/><path class="cls-1" d="M453.08,355q4.5.38,8.41.83V324.26c-2.77-.46-5.59-.86-8.41-1.2Z" transform="translate(-101.05 -188.1)"/><path class="cls-1" d="M462.87,356c2.78.33,5.32.69,7.63,1V326.07c-2.44-.59-5-1.11-7.63-1.57Z" transform="translate(-101.05 -188.1)"/><path class="cls-1" d="M471.58,357.18q3.53.57,6.24,1.11v-30.1c-1.93-.68-4-1.3-6.24-1.86Z" transform="translate(-101.05 -188.1)"/><path class="cls-1" d="M479.05,358.53c1.52.31,2.81.6,3.89.85v-29a38.15,38.15,0,0,0-3.89-1.71Z" transform="translate(-101.05 -188.1)"/><path class="cls-1" d="M484.29,359.71l1.88.49h.6V332.8a18.58,18.58,0,0,0-2.48-1.71Z" transform="translate(-101.05 -188.1)"/><path class="cls-1" d="M418.06,388.05a0,0,0,0,0,0,0h10.33l0,0V355.9c-6.26-.15-10.39-.16-10.39-.16Z" transform="translate(-101.05 -188.1)"/><path class="cls-1" d="M429.84,388.08h10.67V356.29c-3.87-.16-7.5-.27-10.67-.35Z" transform="translate(-101.05 -188.1)"/><path class="cls-1" d="M442,388.08h9.65V356.86c-3.28-.21-6.53-.37-9.65-.51Z" transform="translate(-101.05 -188.1)"/><path class="cls-1" d="M453.08,388.08h8.41V357.59c-2.76-.25-5.59-.46-8.41-.64Z" transform="translate(-101.05 -188.1)"/><path class="cls-1" d="M462.87,388.08h7.63V358.54c-2.43-.31-5-.58-7.63-.83Z" transform="translate(-101.05 -188.1)"/><path class="cls-1" d="M471.58,388.08h6.24V359.67c-1.91-.36-4-.69-6.24-1Z" transform="translate(-101.05 -188.1)"/><path class="cls-1" d="M483,360.87c-1.16-.34-2.47-.65-3.89-.94v28.15H483Z" transform="translate(-101.05 -188.1)"/><path class="cls-1" d="M484.29,388.08h2.48V362.3a18.26,18.26,0,0,0-2.48-1Z" transform="translate(-101.05 -188.1)"/><polygon class="cls-2" points="292.43 79.96 385.73 79.96 385.73 77.25 292.43 77.25 292.33 77.25 199.04 77.25 199.04 79.96 292.33 79.96 292.43 79.96"/><rect class="cls-2" x="81.8" y="123.06" width="1.58" height="87.56"/><rect class="cls-2" x="501.39" y="123.06" width="1.58" height="87.56"/><path class="cls-2" d="M187.18,308.87h0a1.08,1.08,0,1,0,2.15,0h0a1.08,1.08,0,1,0,2.16,0h0a1.08,1.08,0,1,0,2.15,0h0a1.08,1.08,0,0,0,1.08,1.08,1.09,1.09,0,0,0,1.08-1.08h0a1.08,1.08,0,1,0,2.15,0h0a1.08,1.08,0,1,0,2.15,0h0a1.09,1.09,0,0,0,1.08,1.08,1.08,1.08,0,0,0,1.08-1.08h0a1.08,1.08,0,1,0,2.15,0h0a1.08,1.08,0,1,0,2.16,0h0a1.08,1.08,0,1,0,2.15,0h0a1.08,1.08,0,1,0,2.16,0h0a1.08,1.08,0,1,0,2.15,0h0a1.08,1.08,0,0,0,1.08,1.08,1.09,1.09,0,0,0,1.08-1.08h0a1.08,1.08,0,1,0,2.15,0h0a1.08,1.08,0,1,0,2.15,0h0a1.08,1.08,0,1,0,2.15,0h0a1.08,1.08,0,1,0,2.15,0h0a1.09,1.09,0,0,0,1.08,1.08,1.08,1.08,0,0,0,1.08-1.08h0a1.08,1.08,0,1,0,2.15,0h0a1.08,1.08,0,1,0,2.16,0h0a1.08,1.08,0,1,0,2.15,0h0A1.08,1.08,0,0,0,233.5,310a1.09,1.09,0,0,0,1.08-1.08h0a1.08,1.08,0,1,0,2.15,0h0a1.08,1.08,0,1,0,2.15,0h0a1.08,1.08,0,1,0,2.15,0h0a1.08,1.08,0,1,0,2.15,0h0a1.09,1.09,0,0,0,1.08,1.08,1.08,1.08,0,0,0,1.08-1.08h0a1.08,1.08,0,1,0,2.15,0h0a1.08,1.08,0,1,0,2.16,0h0a1.08,1.08,0,1,0,2.15,0h0a1.08,1.08,0,1,0,2.16,0h0a1.08,1.08,0,1,0,2.15,0h0A1.08,1.08,0,0,0,257.2,310a1.09,1.09,0,0,0,1.08-1.08h0a1.08,1.08,0,1,0,2.15,0h0a1.08,1.08,0,1,0,2.15,0h0a1.09,1.09,0,0,0,1.08,1.08,1.08,1.08,0,0,0,1.08-1.08h0a1.08,1.08,0,1,0,2.15,0h0a1.08,1.08,0,1,0,2.16,0h0a1.08,1.08,0,1,0,2.15,0h0a1.08,1.08,0,0,0,2.16,0h0a1.08,1.08,0,1,0,2.15,0h0a1.08,1.08,0,0,0,1.08,1.08,1.09,1.09,0,0,0,1.08-1.08h0a1.08,1.08,0,1,0,2.15,0h0a1.08,1.08,0,1,0,2.15,0h0a1.08,1.08,0,1,0,2.15,0h0a1.08,1.08,0,1,0,2.15,0h0a1.08,1.08,0,1,0,2.16,0h0a1.08,1.08,0,1,0,2.15,0h0a1.08,1.08,0,1,0,2.16,0h0a1.08,1.08,0,1,0,2.15,0v-8.79c2.14-8.37,8.29-10.31,8.29-10.31v-4.29h-88.1a46.42,46.42,0,0,0-29.86,14.61l-6.67,0v8.74a1.08,1.08,0,1,0,2.15,0h0a1.09,1.09,0,0,0,1.08,1.08,1.08,1.08,0,0,0,1.08-1.08h0a1.08,1.08,0,1,0,2.15,0h0a1.08,1.08,0,1,0,2.16,0Z" transform="translate(-101.05 -188.1)"/><rect class="cls-3" x="263.69" y="211.21" width="57.39" height="2.02"/><path class="cls-2" d="M483.67,263.82c-11.33-30.72-38.89-29.7-38.89-29.7H434.63s2.71-8.48,3.38-11.2-1.86-2.54-1.86-2.54H405c-1.52-.85-2-4.07-2-4.07l5.07-2.38.85-11.54h-4.74c-.84-3.56-5.41-6.45-6.25-9.67,0-.31-.08-.86-.08-1.41-.88-4.4-8-4.22-8.9.19a7.37,7.37,0,0,1,0,1.22c-.84,3.22-5.41,6.11-6.25,9.67h-4.74l.85,11.54,5.07,2.38s-.51,3.22-2,4.07H350.71s-2.54-.17-1.87,2.54,3.39,11.2,3.39,11.2H342.08s-27.56-1-38.89,29.7H483.67Z" transform="translate(-101.05 -188.1)"/><path class="cls-2" d="M601.63,300.09a46.42,46.42,0,0,0-29.86-14.61h-88.1v4.29s6.14,1.94,8.29,10.31v8.79a1.08,1.08,0,1,0,2.15,0h0a1.08,1.08,0,1,0,2.15,0h0a1.08,1.08,0,1,0,2.15,0h0a1.08,1.08,0,1,0,2.15,0h0a1.09,1.09,0,0,0,1.08,1.08,1.08,1.08,0,0,0,1.08-1.08h0a1.08,1.08,0,1,0,2.15,0h0a1.08,1.08,0,1,0,2.16,0h0a1.08,1.08,0,1,0,2.15,0h0a1.08,1.08,0,0,0,1.08,1.08,1.09,1.09,0,0,0,1.08-1.08h0a1.08,1.08,0,1,0,2.15,0h0a1.08,1.08,0,1,0,2.15,0h0a1.08,1.08,0,1,0,2.15,0h0a1.08,1.08,0,1,0,2.15,0h0A1.09,1.09,0,0,0,521,310a1.08,1.08,0,0,0,1.08-1.08h0a1.08,1.08,0,1,0,2.15,0h0a1.08,1.08,0,1,0,2.16,0h0a1.08,1.08,0,1,0,2.15,0h0a1.08,1.08,0,0,0,2.16,0h0a1.08,1.08,0,1,0,2.15,0h0A1.08,1.08,0,0,0,534,310a1.09,1.09,0,0,0,1.08-1.08h0a1.08,1.08,0,1,0,2.15,0h0a1.08,1.08,0,1,0,2.15,0h0a1.09,1.09,0,0,0,1.08,1.08,1.08,1.08,0,0,0,1.08-1.08h0a1.08,1.08,0,1,0,2.15,0h0a1.08,1.08,0,1,0,2.16,0h0a1.08,1.08,0,1,0,2.15,0h0a1.08,1.08,0,0,0,2.16,0h0a1.08,1.08,0,1,0,2.15,0h0a1.08,1.08,0,0,0,1.08,1.08,1.09,1.09,0,0,0,1.08-1.08h0a1.08,1.08,0,1,0,2.15,0h0a1.08,1.08,0,1,0,2.15,0h0a1.09,1.09,0,0,0,1.08,1.08,1.08,1.08,0,0,0,1.08-1.08h0a1.08,1.08,0,1,0,2.15,0h0a1.08,1.08,0,1,0,2.16,0h0a1.08,1.08,0,1,0,2.15,0h0a1.08,1.08,0,1,0,2.16,0h0a1.08,1.08,0,1,0,2.15,0h0a1.08,1.08,0,0,0,1.08,1.08,1.09,1.09,0,0,0,1.08-1.08h0a1.08,1.08,0,1,0,2.15,0h0a1.08,1.08,0,1,0,2.15,0h0a1.08,1.08,0,1,0,2.15,0h0a1.08,1.08,0,1,0,2.15,0h0a1.09,1.09,0,0,0,1.08,1.08,1.08,1.08,0,0,0,1.08-1.08h0a1.08,1.08,0,1,0,2.15,0h0a1.08,1.08,0,1,0,2.16,0h0a1.08,1.08,0,1,0,2.15,0h0a1.08,1.08,0,1,0,2.16,0h0a1.08,1.08,0,1,0,2.15,0h0a1.08,1.08,0,1,0,2.15,0h0a1.08,1.08,0,1,0,2.15,0h0a1.08,1.08,0,1,0,2.15,0h0a1.09,1.09,0,0,0,1.08,1.08,1.08,1.08,0,0,0,1.08-1.08h0a1.08,1.08,0,1,0,2.15,0h0a1.08,1.08,0,1,0,2.16,0v-8.74Z" transform="translate(-101.05 -188.1)"/><path class="cls-2" d="M489.49,308.39c.07-.72.1-1.21.1-8.34-1-7.64-11.59-11.29-17.25-12.64-34.89-15.86-76.65-16.71-78.86-16.75h-.1c-2.21,0-44,.89-78.86,16.75-5.67,1.35-16.24,5-17.25,12.64,0,7.13,0,7.62.1,8.34.14.47.4.79.72.79s.82-.67.82-1.49-.34-1.75-.27-1.87c.11.58.12,1.05.48,1.05s.82-.66.82-1.48c0-.57-.14-1.4-.11-1.45.15.3.14.48.38.48.45,0,.82-.66.82-1.48a2.29,2.29,0,0,0-.06-.54l0-.06c.15.36.39.6.66.6.45,0,.82-.66.82-1.48,0-.13,0-.25,0-.36l.35-.26a.8.8,0,0,0,.62.36c.51,0,.92-.62,1-1.39.16-.1.33-.2.51-.29a1,1,0,0,0,.78.45c.56,0,1-.59,1.07-1.34l.29-.13a1,1,0,0,0,.8.48c.51,0,.94-.49,1-1.15l.21-.07.48-.16a.94.94,0,0,0,.67.33,1.11,1.11,0,0,0,1-.85l.54-.17a.88.88,0,0,0,.65.3,1.1,1.1,0,0,0,1-.81l.45-.14a.93.93,0,0,0,.75.43,1.15,1.15,0,0,0,1-.94l.32-.08a1,1,0,0,0,.84.56,1.17,1.17,0,0,0,1-1l.19-.05a1,1,0,0,0,.86.59,1.18,1.18,0,0,0,1-1l.31-.06a1,1,0,0,0,.83.54,1.13,1.13,0,0,0,1-.9l.36-.07a1,1,0,0,0,.81.51,1.09,1.09,0,0,0,.95-.8l.4-.07a1,1,0,0,0,.81.52,1.08,1.08,0,0,0,.94-.78l.52-.07a.93.93,0,0,0,.7.36,1,1,0,0,0,.84-.57l.72-.09a.87.87,0,0,0,.6.25.94.94,0,0,0,.74-.41l.8-.09a.9.9,0,0,0,.62.27,1,1,0,0,0,.75-.42l.75-.07a.93.93,0,0,0,.66.32,1,1,0,0,0,.78-.47l.69-.06a.94.94,0,0,0,.69.34,1,1,0,0,0,.79-.48l.69-.06a.92.92,0,0,0,.68.34,1,1,0,0,0,.78-.46l.57-.05a1,1,0,0,0,.81.51,1,1,0,0,0,.89-.64l.48,0a1,1,0,0,0,.79.48,1,1,0,0,0,.86-.6l.64,0a.89.89,0,0,0,.66.32.94.94,0,0,0,.75-.42l.82-.05a.85.85,0,0,0,1.26-.08l.91-.06a1,1,0,0,0,.72.38,1,1,0,0,0,.79-.47l.69,0a.92.92,0,0,0,.68.34,1,1,0,0,0,.75-.42l.63,0a1,1,0,0,0,.78.46,1,1,0,0,0,.83-.55l.49,0a1,1,0,0,0,.84.57,1.06,1.06,0,0,0,.9-.66l.36,0a1,1,0,0,0,.9.68,1.09,1.09,0,0,0,.94-.77l.37,0a1,1,0,0,0,.85.58,1,1,0,0,0,.9-.66l.45,0a1,1,0,0,0,.81.51,1,1,0,0,0,.86-.59l.56,0a.94.94,0,0,0,.74.41,1,1,0,0,0,.79-.48l.57,0a1,1,0,0,0,.8.5,1,1,0,0,0,.85-.57l.52,0a1,1,0,0,0,.79.47,1,1,0,0,0,.83-.54h.43a.95.95,0,0,0,1.83-.07l.35,0a1,1,0,0,0,.88.64,1.06,1.06,0,0,0,.92-.7h.32a1.06,1.06,0,0,0,.92.71,1.08,1.08,0,0,0,.95-.78h.26a1,1,0,0,0,1.93-.06h.18a1.13,1.13,0,0,0,1,.95,1.19,1.19,0,0,0,1-1h.11a1,1,0,1,0,2.06-.07h.17a1.1,1.1,0,0,0,1,.81,1.13,1.13,0,0,0,1-.87h.19a1.13,1.13,0,0,0,1,.88,1.15,1.15,0,0,0,1-.94h.22a1.07,1.07,0,0,0,.94.76,1.1,1.1,0,0,0,1-.82h.23a1,1,0,0,0,2-.05h.19a1.13,1.13,0,0,0,1,.89,1.15,1.15,0,0,0,1-.94h.06a1,1,0,0,0,2,.05h.18a1.13,1.13,0,0,0,1,.88,1.1,1.1,0,0,0,1-.83h.24a1.1,1.1,0,0,0,1,.82,1.07,1.07,0,0,0,.94-.76h.22a1.15,1.15,0,0,0,1,.94,1.12,1.12,0,0,0,1-.88h.2a1.13,1.13,0,0,0,1,.87,1.1,1.1,0,0,0,1-.81h.17a1.19,1.19,0,0,0,1,1.09,1.17,1.17,0,0,0,1-1h.12a1.17,1.17,0,0,0,1,1,1.15,1.15,0,0,0,1-.95h.18a1.11,1.11,0,0,0,1,.85,1.08,1.08,0,0,0,.95-.79h.27a1.08,1.08,0,0,0,.94.78,1.06,1.06,0,0,0,.92-.71H413a1.06,1.06,0,0,0,.91.7,1,1,0,0,0,.89-.64l.34,0a1.09,1.09,0,0,0,.93.74,1.07,1.07,0,0,0,.91-.67h.43a1,1,0,0,0,.82.54,1,1,0,0,0,.79-.47l.53,0a1,1,0,0,0,.84.57,1,1,0,0,0,.81-.5l.57,0a.88.88,0,0,0,1.53.07l.56,0a1,1,0,0,0,.86.59,1,1,0,0,0,.81-.51l.45,0a1,1,0,0,0,.9.66,1,1,0,0,0,.85-.58l.37,0a1.09,1.09,0,0,0,.94.77,1,1,0,0,0,.9-.68l.36,0a1.05,1.05,0,0,0,.9.66,1,1,0,0,0,.84-.57l.49,0a1,1,0,0,0,.83.55,1,1,0,0,0,.77-.46l.64,0a1,1,0,0,0,.75.42.92.92,0,0,0,.68-.34l.69,0a.89.89,0,0,0,1.51.09l.91.06a.9.9,0,0,0,.67.32.91.91,0,0,0,.59-.24l.81.05a1,1,0,0,0,.76.42.89.89,0,0,0,.66-.32l.64,0a1,1,0,0,0,.86.6,1,1,0,0,0,.78-.48l.49,0a1,1,0,0,0,.89.64,1,1,0,0,0,.8-.51l.58.05a1,1,0,0,0,.78.46.92.92,0,0,0,.68-.34l.69.06a.94.94,0,0,0,.79.48.9.9,0,0,0,.68-.34l.7.06a1,1,0,0,0,.78.47.93.93,0,0,0,.66-.32l.75.07a.94.94,0,0,0,.75.42.86.86,0,0,0,.61-.27l.81.09a.94.94,0,0,0,.74.41.87.87,0,0,0,.6-.25l.72.09a1,1,0,0,0,.84.57.9.9,0,0,0,.69-.36l.53.07a1.08,1.08,0,0,0,.94.78,1,1,0,0,0,.81-.52l.39.07a1.1,1.1,0,0,0,1,.8,1,1,0,0,0,.81-.51l.36.07a1.12,1.12,0,0,0,1,.9,1,1,0,0,0,.83-.54l.31.06a1.18,1.18,0,0,0,1,1,1,1,0,0,0,.86-.59l.18.05c.14.6.54,1,1,1a1,1,0,0,0,.84-.56l.32.08a1.14,1.14,0,0,0,1,.94.93.93,0,0,0,.75-.43l.45.14a1.1,1.1,0,0,0,1,.81.9.9,0,0,0,.65-.3l.54.17a1.11,1.11,0,0,0,1,.85.9.9,0,0,0,.66-.33l.49.16.21.07c.11.66.54,1.15,1.05,1.15a.94.94,0,0,0,.79-.48l.3.13c0,.75.51,1.34,1.07,1.34a1,1,0,0,0,.78-.45l.51.29c0,.77.45,1.39,1,1.39a.82.82,0,0,0,.62-.36l.35.26a2,2,0,0,0,0,.36c0,.82.37,1.48.82,1.48.27,0,.5-.24.65-.6l.06.06a2.29,2.29,0,0,0-.06.54c0,.82.36,1.48.82,1.48.24,0,.22-.18.37-.48,0,.05-.1.88-.1,1.45,0,.82.36,1.48.82,1.48s.37-.47.48-1.05c.06.12-.27,1.11-.27,1.87s.37,1.49.82,1.49S489.35,308.86,489.49,308.39Z" transform="translate(-101.05 -188.1)"/><rect class="cls-4" x="258.48" y="214.03" width="67.8" height="2.02"/><rect class="cls-5" x="252.95" y="216.86" width="78.87" height="2.02"/><rect class="cls-6" x="247.8" y="220.41" width="89.17" height="2.02"/><rect class="cls-2" x="269.95" y="131.95" width="44.76" height="77.77"/><path class="cls-4" d="M198.21,493.58q-10-5.82-20-11.63c-4.88-2.84-6.78-8.24-4.66-13.16a10.19,10.19,0,0,1,14.34-5q18.27,10.41,36.4,21a9.59,9.59,0,0,1,4.86,9.74c-.4,4.28-2.86,7.09-6.72,8.77a3.4,3.4,0,0,0-.48.29c-4.11.95-7.56-.6-11-2.69C206.79,498.37,202.47,496,198.21,493.58Z" transform="translate(-101.05 -188.1)"/><path class="cls-6" d="M132,493.54l16.3,9.52c1.4.81,2.83,1.59,4.21,2.44a10.26,10.26,0,0,1-10.29,17.76q-18.21-10.38-36.3-21a9.57,9.57,0,0,1-4.89-8.89,10,10,0,0,1,5.56-9c.43-.23.88-.44,1.31-.67a12.05,12.05,0,0,1,10,1.67C122.51,488.27,127.3,490.85,132,493.54Z" transform="translate(-101.05 -188.1)"/><path class="cls-5" d="M132,493.54c-4.72-2.69-9.51-5.27-14.15-8.1a12.05,12.05,0,0,0-10-1.67c4.38-2.55,8.74-5.12,13.12-7.66q10.36-6,20.73-12c5.29-3,11.45-1.52,14.38,3.53s1.19,11.16-4.08,14.24Q142.07,487.76,132,493.54Z" transform="translate(-101.05 -188.1)"/><path class="cls-3" d="M198.21,493.58c4.26,2.44,8.58,4.79,12.76,7.35,3.41,2.09,6.86,3.64,11,2.69-5,2.92-10,5.86-15,8.77-6.25,3.63-12.51,7.26-18.79,10.83a10.29,10.29,0,0,1-15.42-9.3,10,10,0,0,1,5.34-8.64q9.72-5.59,19.42-11.21C197.73,493.92,198,493.74,198.21,493.58Z" transform="translate(-101.05 -188.1)"/><path class="cls-7" d="M303.39,495.51q0,9.64-5.72,15.37-6.42,6.81-16.91,6.82a24,24,0,1,1,0-48.09,25.54,25.54,0,0,1,9.58,1.8,19.23,19.23,0,0,1,7.4,5.07l-4.25,4.25a14.11,14.11,0,0,0-5.49-4,18.25,18.25,0,0,0-7.24-1.45A17.35,17.35,0,0,0,268,480.47a19.47,19.47,0,0,0,0,26.36A17.35,17.35,0,0,0,280.76,512a17.15,17.15,0,0,0,11.45-3.86,15.38,15.38,0,0,0,5.27-10.61H280.76V492h22.31A19.23,19.23,0,0,1,303.39,495.51Z" transform="translate(-101.05 -188.1)"/><path class="cls-7" d="M310.59,516.67v-46h14.08q10.54,0,16.95,6.37T348,493.65q0,10.35-6.39,16.68t-16.95,6.34Zm5.92-40.38V511h8.16q8,0,12.67-4.6T342,493.65q0-8.1-4.63-12.73t-12.67-4.63Z" transform="translate(-101.05 -188.1)"/><path class="cls-7" d="M398.32,495.51q0,9.64-5.73,15.37-6.42,6.81-16.9,6.82a24,24,0,1,1,0-48.09,25.62,25.62,0,0,1,9.58,1.8,19.27,19.27,0,0,1,7.39,5.07l-4.24,4.25a14.22,14.22,0,0,0-5.5-4,18.24,18.24,0,0,0-7.23-1.45A17.31,17.31,0,0,0,363,480.47a19.44,19.44,0,0,0,0,26.36A17.31,17.31,0,0,0,375.69,512a17.12,17.12,0,0,0,11.44-3.86,15.38,15.38,0,0,0,5.27-10.61H375.69V492H398A19.27,19.27,0,0,1,398.32,495.51Z" transform="translate(-101.05 -188.1)"/><path class="cls-7" d="M425.39,498v18.65h-5.91v-46h15.69a14.15,14.15,0,0,1,10.15,4,13.29,13.29,0,0,1,0,19.48A14.12,14.12,0,0,1,435.17,498Zm0-21.73v16.07h9.9a7.86,7.86,0,0,0,5.86-2.37,7.76,7.76,0,0,0,2.37-5.66,7.66,7.66,0,0,0-2.37-5.59,7.74,7.74,0,0,0-5.86-2.45Z" transform="translate(-101.05 -188.1)"/><path class="cls-7" d="M465.46,517.7A15.08,15.08,0,0,1,454,512.94a16.8,16.8,0,0,1-4.5-12,17.17,17.17,0,0,1,4.37-12,14.49,14.49,0,0,1,11.19-4.78q7,0,11.15,4.53t4.15,12.7l-.06.64H455.56a10.31,10.31,0,0,0,3.09,7.46,9.89,9.89,0,0,0,7.07,2.82q5.65,0,8.87-5.65l5.28,2.57a15.74,15.74,0,0,1-5.89,6.24A16.24,16.24,0,0,1,465.46,517.7ZM456,497.12h18.07a7.84,7.84,0,0,0-2.67-5.43,9.32,9.32,0,0,0-6.46-2.15,8.55,8.55,0,0,0-5.75,2A9.9,9.9,0,0,0,456,497.12Z" transform="translate(-101.05 -188.1)"/><path class="cls-7" d="M497.29,517.18a9,9,0,0,1-6.4-2.38,8.81,8.81,0,0,1-2.6-6.62V490.56h-5.53v-5.4h5.53v-9.64h5.91v9.64h7.72v5.4H494.2v15.69c0,2.1.41,3.53,1.22,4.28a4,4,0,0,0,2.77,1.12,5.79,5.79,0,0,0,1.38-.16,6.9,6.9,0,0,0,1.26-.42l1.86,5.28A16,16,0,0,1,497.29,517.18Z" transform="translate(-101.05 -188.1)"/><path class="cls-7" d="M513.43,516.67h-5.91V485.16h5.65v5.15h.26a8.54,8.54,0,0,1,3.7-4.28,10.22,10.22,0,0,1,5.49-1.77A11,11,0,0,1,527,485l-1.81,5.72a9.74,9.74,0,0,0-3.47-.45,7.66,7.66,0,0,0-5.82,2.7,9,9,0,0,0-2.47,6.3Z" transform="translate(-101.05 -188.1)"/><path class="cls-7" d="M527,500.89a16.67,16.67,0,0,1,4.56-12,15.55,15.55,0,0,1,11.64-4.76,15.31,15.31,0,0,1,11.57,4.76,17.92,17.92,0,0,1,0,24,15.35,15.35,0,0,1-11.57,4.76,15.58,15.58,0,0,1-11.64-4.76A16.67,16.67,0,0,1,527,500.89Zm5.91,0a11.54,11.54,0,0,0,3,8.23,10.1,10.1,0,0,0,14.66,0,12.87,12.87,0,0,0,0-16.4,10,10,0,0,0-14.66,0A11.47,11.47,0,0,0,532.91,500.89Zm17.23-30.28-4.63,8.23h-5.14l3.34-8.23Z" transform="translate(-101.05 -188.1)"/><path class="cls-7" d="M579.94,517.7a13.64,13.64,0,0,1-6.33-1.48,11.13,11.13,0,0,1-4.41-3.93H569l.25,4.38v13.88h-5.91V485.16H569v4.38h.25a11.13,11.13,0,0,1,4.41-3.93A14,14,0,0,1,590.48,489a18.15,18.15,0,0,1,0,23.79A13.51,13.51,0,0,1,579.94,517.7Zm-1-5.41a9.23,9.23,0,0,0,7.13-3.21,11.59,11.59,0,0,0,2.9-8.16,11.75,11.75,0,0,0-2.9-8.17,9.6,9.6,0,0,0-14.33,0,13.28,13.28,0,0,0,0,16.39A9.32,9.32,0,0,0,579,512.29Z" transform="translate(-101.05 -188.1)"/><path class="cls-7" d="M598.32,500.92a16.66,16.66,0,0,1,4.57-12,15.54,15.54,0,0,1,11.64-4.75,15.36,15.36,0,0,1,11.57,4.75,17.93,17.93,0,0,1,0,24.05,15.37,15.37,0,0,1-11.57,4.76,15.55,15.55,0,0,1-11.64-4.76A16.64,16.64,0,0,1,598.32,500.92Zm5.92,0a11.49,11.49,0,0,0,3,8.22,10.09,10.09,0,0,0,14.65,0,12.82,12.82,0,0,0,0-16.39,10,10,0,0,0-14.65,0A11.41,11.41,0,0,0,604.24,500.92Z" transform="translate(-101.05 -188.1)"/><path class="cls-7" d="M641,470.65v45.42h-5.92V470.65Z" transform="translate(-101.05 -188.1)"/><path class="cls-7" d="M655.85,474.7a4.17,4.17,0,1,1-1.22-3A4.05,4.05,0,0,1,655.85,474.7Zm-1.22,10.41v31h-5.92v-31Z" transform="translate(-101.05 -188.1)"/><path class="cls-7" d="M685.81,507.92a8.55,8.55,0,0,1-3.6,6.95,15.63,15.63,0,0,1-17.42.35,13.56,13.56,0,0,1-5.14-6.53l5.27-2.25a9.75,9.75,0,0,0,3.37,4.41,8.21,8.21,0,0,0,4.86,1.57,8.5,8.5,0,0,0,4.72-1.22,3.46,3.46,0,0,0,1.9-2.89c0-2-1.54-3.49-4.63-4.44l-5.4-1.35q-9.19-2.31-9.19-8.87a8.17,8.17,0,0,1,3.5-6.91,16.08,16.08,0,0,1,16.52-.61,10.87,10.87,0,0,1,4.73,5.33L680,493.65a6.69,6.69,0,0,0-2.93-3.12,9.17,9.17,0,0,0-4.53-1.12,7.62,7.62,0,0,0-4.15,1.15,3.35,3.35,0,0,0-1.83,2.83q0,2.7,5.08,3.86l4.76,1.22Q685.81,500.79,685.81,507.92Z" transform="translate(-101.05 -188.1)"/></svg>